<?xml version="1.0" encoding="UTF-8" standalone="no"?>
<!DOCTYPE svg PUBLIC "-//W3C//DTD SVG 1.1//EN"
 "http://www.w3.org/Graphics/SVG/1.1/DTD/svg11.dtd">
<!-- Generated by graphviz version 2.44.1 (20200629.0846)
 -->
<!-- Pages: 1 -->
<svg width="1196pt" height="580pt"
 viewBox="0.00 0.00 1196.00 580.00" xmlns="http://www.w3.org/2000/svg" xmlns:xlink="http://www.w3.org/1999/xlink">
<g id="graph0" class="graph" transform="scale(1 1) rotate(0) translate(4 576)">
<polygon fill="white" stroke="transparent" points="-4,4 -4,-576 1192,-576 1192,4 -4,4"/>
<g id="clust1" class="cluster">
<title>cluster_sources</title>
<polygon fill="none" stroke="white" points="562,-512 562,-564 674,-564 674,-512 562,-512"/>
</g>
<g id="clust2" class="cluster">
<title>cluster_transforms</title>
<polygon fill="none" stroke="white" points="8,-80 8,-492 1180,-492 1180,-80 8,-80"/>
</g>
<g id="clust3" class="cluster">
<title>cluster_sinks</title>
<polygon fill="none" stroke="white" points="19,-8 19,-60 1163,-60 1163,-8 19,-8"/>
</g>
<!-- in -->
<g id="node1" class="node">
<title>in</title>
<ellipse fill="lightgrey" stroke="black" cx="618" cy="-538" rx="48.19" ry="18"/>
<text text-anchor="middle" x="618" y="-534.3" font-family="Times,serif" font-size="14.00">in (syslog)</text>
</g>
<!-- company_api -->
<g id="node2" class="node">
<title>company_api</title>
<path fill="lightgrey" stroke="black" d="M482.5,-484C482.5,-484 347.5,-484 347.5,-484 341.5,-484 335.5,-478 335.5,-472 335.5,-472 335.5,-460 335.5,-460 335.5,-454 341.5,-448 347.5,-448 347.5,-448 482.5,-448 482.5,-448 488.5,-448 494.5,-454 494.5,-460 494.5,-460 494.5,-472 494.5,-472 494.5,-478 488.5,-484 482.5,-484"/>
<text text-anchor="middle" x="415" y="-462.3" font-family="Times,serif" font-size="14.00">company_api (field_filter)</text>
</g>
<!-- in&#45;&gt;company_api -->
<g id="edge6" class="edge">
<title>in&#45;&gt;company_api</title>
<path fill="none" stroke="black" d="M583.56,-525.13C553.68,-514.82 509.76,-499.68 474.25,-487.43"/>
<polygon fill="black" stroke="black" points="475.07,-484.01 464.47,-484.06 472.78,-490.63 475.07,-484.01"/>
</g>
<!-- company_admin -->
<g id="node7" class="node">
<title>company_admin</title>
<path fill="lightgrey" stroke="black" d="M694.5,-484C694.5,-484 541.5,-484 541.5,-484 535.5,-484 529.5,-478 529.5,-472 529.5,-472 529.5,-460 529.5,-460 529.5,-454 535.5,-448 541.5,-448 541.5,-448 694.5,-448 694.5,-448 700.5,-448 706.5,-454 706.5,-460 706.5,-460 706.5,-472 706.5,-472 706.5,-478 700.5,-484 694.5,-484"/>
<text text-anchor="middle" x="618" y="-462.3" font-family="Times,serif" font-size="14.00">company_admin (field_filter)</text>
</g>
<!-- in&#45;&gt;company_admin -->
<g id="edge11" class="edge">
<title>in&#45;&gt;company_admin</title>
<path fill="none" stroke="black" d="M618,-519.7C618,-511.98 618,-502.71 618,-494.11"/>
<polygon fill="black" stroke="black" points="621.5,-494.1 618,-484.1 614.5,-494.1 621.5,-494.1"/>
</g>
<!-- company_media_proxy -->
<g id="node12" class="node">
<title>company_media_proxy</title>
<path fill="lightgrey" stroke="black" d="M944.5,-484C944.5,-484 753.5,-484 753.5,-484 747.5,-484 741.5,-478 741.5,-472 741.5,-472 741.5,-460 741.5,-460 741.5,-454 747.5,-448 753.5,-448 753.5,-448 944.5,-448 944.5,-448 950.5,-448 956.5,-454 956.5,-460 956.5,-460 956.5,-472 956.5,-472 956.5,-478 950.5,-484 944.5,-484"/>
<text text-anchor="middle" x="849" y="-462.3" font-family="Times,serif" font-size="14.00">company_media_proxy (field_filter)</text>
</g>
<!-- in&#45;&gt;company_media_proxy -->
<g id="edge16" class="edge">
<title>in&#45;&gt;company_media_proxy</title>
<path fill="none" stroke="black" d="M654.09,-526.06C688.47,-515.65 741.03,-499.72 782.91,-487.03"/>
<polygon fill="black" stroke="black" points="783.94,-490.37 792.49,-484.12 781.91,-483.67 783.94,-490.37"/>
</g>
<!-- company_unfurler -->
<g id="node16" class="node">
<title>company_unfurler</title>
<path fill="lightgrey" stroke="black" d="M259,-484C259,-484 97,-484 97,-484 91,-484 85,-478 85,-472 85,-472 85,-460 85,-460 85,-454 91,-448 97,-448 97,-448 259,-448 259,-448 265,-448 271,-454 271,-460 271,-460 271,-472 271,-472 271,-478 265,-484 259,-484"/>
<text text-anchor="middle" x="178" y="-462.3" font-family="Times,serif" font-size="14.00">company_unfurler (field_filter)</text>
</g>
<!-- in&#45;&gt;company_unfurler -->
<g id="edge20" class="edge">
<title>in&#45;&gt;company_unfurler</title>
<path fill="none" stroke="black" d="M573.94,-530.41C516.75,-521.81 413.85,-506.19 326,-492 311.44,-489.65 296.08,-487.11 280.99,-484.59"/>
<polygon fill="black" stroke="black" points="281.57,-481.14 271.13,-482.94 280.41,-488.05 281.57,-481.14"/>
</g>
<!-- audit -->
<g id="node22" class="node">
<title>audit</title>
<path fill="lightgrey" stroke="black" d="M1105.5,-484C1105.5,-484 1016.5,-484 1016.5,-484 1010.5,-484 1004.5,-478 1004.5,-472 1004.5,-472 1004.5,-460 1004.5,-460 1004.5,-454 1010.5,-448 1016.5,-448 1016.5,-448 1105.5,-448 1105.5,-448 1111.5,-448 1117.5,-454 1117.5,-460 1117.5,-460 1117.5,-472 1117.5,-472 1117.5,-478 1111.5,-484 1105.5,-484"/>
<text text-anchor="middle" x="1061" y="-462.3" font-family="Times,serif" font-size="14.00">audit (field_filter)</text>
</g>
<!-- in&#45;&gt;audit -->
<g id="edge26" class="edge">
<title>in&#45;&gt;audit</title>
<path fill="none" stroke="black" d="M664.18,-532.94C731.12,-526.62 858.83,-512.94 966,-492 975.25,-490.19 984.94,-488 994.45,-485.67"/>
<polygon fill="black" stroke="black" points="995.41,-489.04 1004.26,-483.21 993.71,-482.25 995.41,-489.04"/>
</g>
<!-- company_api_json -->
<g id="node3" class="node">
<title>company_api_json</title>
<path fill="lightgrey" stroke="black" d="M482,-412C482,-412 312,-412 312,-412 306,-412 300,-406 300,-400 300,-400 300,-388 300,-388 300,-382 306,-376 312,-376 312,-376 482,-376 482,-376 488,-376 494,-382 494,-388 494,-388 494,-400 494,-400 494,-406 488,-412 482,-412"/>
<text text-anchor="middle" x="397" y="-390.3" font-family="Times,serif" font-size="14.00">company_api_json (json_parser)</text>
</g>
<!-- company_api&#45;&gt;company_api_json -->
<g id="edge7" class="edge">
<title>company_api&#45;&gt;company_api_json</title>
<path fill="none" stroke="black" d="M410.55,-447.7C408.55,-439.9 406.13,-430.51 403.9,-421.83"/>
<polygon fill="black" stroke="black" points="407.28,-420.92 401.4,-412.1 400.5,-422.66 407.28,-420.92"/>
</g>
<!-- company_api_timestamp -->
<g id="node4" class="node">
<title>company_api_timestamp</title>
<path fill="lightgrey" stroke="black" d="M470.5,-340C470.5,-340 303.5,-340 303.5,-340 297.5,-340 291.5,-334 291.5,-328 291.5,-328 291.5,-316 291.5,-316 291.5,-310 297.5,-304 303.5,-304 303.5,-304 470.5,-304 470.5,-304 476.5,-304 482.5,-310 482.5,-316 482.5,-316 482.5,-328 482.5,-328 482.5,-334 476.5,-340 470.5,-340"/>
<text text-anchor="middle" x="387" y="-318.3" font-family="Times,serif" font-size="14.00">company_api_timestamp (split)</text>
</g>
<!-- company_api_json&#45;&gt;company_api_timestamp -->
<g id="edge8" class="edge">
<title>company_api_json&#45;&gt;company_api_timestamp</title>
<path fill="none" stroke="black" d="M394.53,-375.7C393.43,-367.98 392.1,-358.71 390.87,-350.11"/>
<polygon fill="black" stroke="black" points="394.32,-349.51 389.44,-340.1 387.39,-350.5 394.32,-349.51"/>
</g>
<!-- company_api_metadata -->
<g id="node5" class="node">
<title>company_api_metadata</title>
<path fill="lightgrey" stroke="black" d="M471,-268C471,-268 319,-268 319,-268 313,-268 307,-262 307,-256 307,-256 307,-244 307,-244 307,-238 313,-232 319,-232 319,-232 471,-232 471,-232 477,-232 483,-238 483,-244 483,-244 483,-256 483,-256 483,-262 477,-268 471,-268"/>
<text text-anchor="middle" x="395" y="-246.3" font-family="Times,serif" font-size="14.00">company_api_metadata (lua)</text>
</g>
<!-- company_api_timestamp&#45;&gt;company_api_metadata -->
<g id="edge9" class="edge">
<title>company_api_timestamp&#45;&gt;company_api_metadata</title>
<path fill="none" stroke="black" d="M388.98,-303.7C389.86,-295.98 390.92,-286.71 391.9,-278.11"/>
<polygon fill="black" stroke="black" points="395.39,-278.44 393.05,-268.1 388.43,-277.64 395.39,-278.44"/>
</g>
<!-- company_api_rename -->
<g id="node6" class="node">
<title>company_api_rename</title>
<path fill="lightgrey" stroke="black" d="M503.5,-196C503.5,-196 300.5,-196 300.5,-196 294.5,-196 288.5,-190 288.5,-184 288.5,-184 288.5,-172 288.5,-172 288.5,-166 294.5,-160 300.5,-160 300.5,-160 503.5,-160 503.5,-160 509.5,-160 515.5,-166 515.5,-172 515.5,-172 515.5,-184 515.5,-184 515.5,-190 509.5,-196 503.5,-196"/>
<text text-anchor="middle" x="402" y="-174.3" font-family="Times,serif" font-size="14.00">company_api_rename (rename_fields)</text>
</g>
<!-- company_api_metadata&#45;&gt;company_api_rename -->
<g id="edge10" class="edge">
<title>company_api_metadata&#45;&gt;company_api_rename</title>
<path fill="none" stroke="black" d="M396.73,-231.7C397.5,-223.98 398.43,-214.71 399.29,-206.11"/>
<polygon fill="black" stroke="black" points="402.78,-206.4 400.29,-196.1 395.81,-205.71 402.78,-206.4"/>
</g>
<!-- company_api_http -->
<g id="node25" class="node">
<title>company_api_http</title>
<ellipse fill="lightgrey" stroke="black" cx="376" cy="-34" rx="98.58" ry="18"/>
<text text-anchor="middle" x="376" y="-30.3" font-family="Times,serif" font-size="14.00">company_api_http (http)</text>
</g>
<!-- company_api_rename&#45;&gt;company_api_http -->
<g id="edge1" class="edge">
<title>company_api_rename&#45;&gt;company_api_http</title>
<path fill="none" stroke="black" d="M398.86,-159.87C394.43,-135.67 386.29,-91.21 381.02,-62.39"/>
<polygon fill="black" stroke="black" points="384.39,-61.4 379.15,-52.19 377.51,-62.66 384.39,-61.4"/>
</g>
<!-- company_admin_json -->
<g id="node8" class="node">
<title>company_admin_json</title>
<path fill="lightgrey" stroke="black" d="M712,-412C712,-412 524,-412 524,-412 518,-412 512,-406 512,-400 512,-400 512,-388 512,-388 512,-382 518,-376 524,-376 524,-376 712,-376 712,-376 718,-376 724,-382 724,-388 724,-388 724,-400 724,-400 724,-406 718,-412 712,-412"/>
<text text-anchor="middle" x="618" y="-390.3" font-family="Times,serif" font-size="14.00">company_admin_json (json_parser)</text>
</g>
<!-- company_admin&#45;&gt;company_admin_json -->
<g id="edge12" class="edge">
<title>company_admin&#45;&gt;company_admin_json</title>
<path fill="none" stroke="black" d="M618,-447.7C618,-439.98 618,-430.71 618,-422.11"/>
<polygon fill="black" stroke="black" points="621.5,-422.1 618,-412.1 614.5,-422.1 621.5,-422.1"/>
</g>
<!-- company_admin_timestamp -->
<g id="node9" class="node">
<title>company_admin_timestamp</title>
<path fill="lightgrey" stroke="black" d="M697.5,-340C697.5,-340 512.5,-340 512.5,-340 506.5,-340 500.5,-334 500.5,-328 500.5,-328 500.5,-316 500.5,-316 500.5,-310 506.5,-304 512.5,-304 512.5,-304 697.5,-304 697.5,-304 703.5,-304 709.5,-310 709.5,-316 709.5,-316 709.5,-328 709.5,-328 709.5,-334 703.5,-340 697.5,-340"/>
<text text-anchor="middle" x="605" y="-318.3" font-family="Times,serif" font-size="14.00">company_admin_timestamp (split)</text>
</g>
<!-- company_admin_json&#45;&gt;company_admin_timestamp -->
<g id="edge13" class="edge">
<title>company_admin_json&#45;&gt;company_admin_timestamp</title>
<path fill="none" stroke="black" d="M614.79,-375.7C613.35,-367.98 611.63,-358.71 610.04,-350.11"/>
<polygon fill="black" stroke="black" points="613.44,-349.3 608.18,-340.1 606.56,-350.58 613.44,-349.3"/>
</g>
<!-- company_admin_metadata -->
<g id="node10" class="node">
<title>company_admin_metadata</title>
<path fill="lightgrey" stroke="black" d="M691,-268C691,-268 521,-268 521,-268 515,-268 509,-262 509,-256 509,-256 509,-244 509,-244 509,-238 515,-232 521,-232 521,-232 691,-232 691,-232 697,-232 703,-238 703,-244 703,-244 703,-256 703,-256 703,-262 697,-268 691,-268"/>
<text text-anchor="middle" x="606" y="-246.3" font-family="Times,serif" font-size="14.00">company_admin_metadata (lua)</text>
</g>
<!-- company_admin_timestamp&#45;&gt;company_admin_metadata -->
<g id="edge14" class="edge">
<title>company_admin_timestamp&#45;&gt;company_admin_metadata</title>
<path fill="none" stroke="black" d="M605.25,-303.7C605.36,-295.98 605.49,-286.71 605.61,-278.11"/>
<polygon fill="black" stroke="black" points="609.11,-278.15 605.76,-268.1 602.11,-278.05 609.11,-278.15"/>
</g>
<!-- company_admin_rename -->
<g id="node11" class="node">
<title>company_admin_rename</title>
<path fill="lightgrey" stroke="black" d="M766.5,-196C766.5,-196 545.5,-196 545.5,-196 539.5,-196 533.5,-190 533.5,-184 533.5,-184 533.5,-172 533.5,-172 533.5,-166 539.5,-160 545.5,-160 545.5,-160 766.5,-160 766.5,-160 772.5,-160 778.5,-166 778.5,-172 778.5,-172 778.5,-184 778.5,-184 778.5,-190 772.5,-196 766.5,-196"/>
<text text-anchor="middle" x="656" y="-174.3" font-family="Times,serif" font-size="14.00">company_admin_rename (rename_fields)</text>
</g>
<!-- company_admin_metadata&#45;&gt;company_admin_rename -->
<g id="edge15" class="edge">
<title>company_admin_metadata&#45;&gt;company_admin_rename</title>
<path fill="none" stroke="black" d="M618.36,-231.7C624.23,-223.47 631.37,-213.48 637.84,-204.42"/>
<polygon fill="black" stroke="black" points="640.82,-206.28 643.78,-196.1 635.12,-202.21 640.82,-206.28"/>
</g>
<!-- company_admin_http -->
<g id="node26" class="node">
<title>company_admin_http</title>
<ellipse fill="lightgrey" stroke="black" cx="603" cy="-34" rx="110.48" ry="18"/>
<text text-anchor="middle" x="603" y="-30.3" font-family="Times,serif" font-size="14.00">company_admin_http (http)</text>
</g>
<!-- company_admin_rename&#45;&gt;company_admin_http -->
<g id="edge2" class="edge">
<title>company_admin_rename&#45;&gt;company_admin_http</title>
<path fill="none" stroke="black" d="M649.61,-159.87C640.49,-135.46 623.69,-90.43 612.94,-61.64"/>
<polygon fill="black" stroke="black" points="616.19,-60.33 609.42,-52.19 609.63,-62.78 616.19,-60.33"/>
</g>
<!-- company_media_proxy_json -->
<g id="node13" class="node">
<title>company_media_proxy_json</title>
<path fill="lightgrey" stroke="black" d="M980,-412C980,-412 754,-412 754,-412 748,-412 742,-406 742,-400 742,-400 742,-388 742,-388 742,-382 748,-376 754,-376 754,-376 980,-376 980,-376 986,-376 992,-382 992,-388 992,-388 992,-400 992,-400 992,-406 986,-412 980,-412"/>
<text text-anchor="middle" x="867" y="-390.3" font-family="Times,serif" font-size="14.00">company_media_proxy_json (json_parser)</text>
</g>
<!-- company_media_proxy&#45;&gt;company_media_proxy_json -->
<g id="edge17" class="edge">
<title>company_media_proxy&#45;&gt;company_media_proxy_json</title>
<path fill="none" stroke="black" d="M853.45,-447.7C855.45,-439.9 857.87,-430.51 860.1,-421.83"/>
<polygon fill="black" stroke="black" points="863.5,-422.66 862.6,-412.1 856.72,-420.92 863.5,-422.66"/>
</g>
<!-- company_media_proxy_timestamp -->
<g id="node14" class="node">
<title>company_media_proxy_timestamp</title>
<path fill="lightgrey" stroke="black" d="M962,-340C962,-340 740,-340 740,-340 734,-340 728,-334 728,-328 728,-328 728,-316 728,-316 728,-310 734,-304 740,-304 740,-304 962,-304 962,-304 968,-304 974,-310 974,-316 974,-316 974,-328 974,-328 974,-334 968,-340 962,-340"/>
<text text-anchor="middle" x="851" y="-318.3" font-family="Times,serif" font-size="14.00">company_media_proxy_timestamp (split)</text>
</g>
<!-- company_media_proxy_json&#45;&gt;company_media_proxy_timestamp -->
<g id="edge18" class="edge">
<title>company_media_proxy_json&#45;&gt;company_media_proxy_timestamp</title>
<path fill="none" stroke="black" d="M863.04,-375.7C861.28,-367.98 859.16,-358.71 857.2,-350.11"/>
<polygon fill="black" stroke="black" points="860.55,-349.07 854.91,-340.1 853.73,-350.63 860.55,-349.07"/>
</g>
<!-- company_media_proxy_rename -->
<g id="node15" class="node">
<title>company_media_proxy_rename</title>
<path fill="lightgrey" stroke="black" d="M992,-268C992,-268 734,-268 734,-268 728,-268 722,-262 722,-256 722,-256 722,-244 722,-244 722,-238 728,-232 734,-232 734,-232 992,-232 992,-232 998,-232 1004,-238 1004,-244 1004,-244 1004,-256 1004,-256 1004,-262 998,-268 992,-268"/>
<text text-anchor="middle" x="863" y="-246.3" font-family="Times,serif" font-size="14.00">company_media_proxy_rename (rename_fields)</text>
</g>
<!-- company_media_proxy_timestamp&#45;&gt;company_media_proxy_rename -->
<g id="edge19" class="edge">
<title>company_media_proxy_timestamp&#45;&gt;company_media_proxy_rename</title>
<path fill="none" stroke="black" d="M853.97,-303.7C855.29,-295.98 856.88,-286.71 858.35,-278.11"/>
<polygon fill="black" stroke="black" points="861.83,-278.55 860.07,-268.1 854.93,-277.37 861.83,-278.55"/>
</g>
<!-- company_media_proxy_http -->
<g id="node27" class="node">
<title>company_media_proxy_http</title>
<ellipse fill="lightgrey" stroke="black" cx="866" cy="-34" rx="134.58" ry="18"/>
<text text-anchor="middle" x="866" y="-30.3" font-family="Times,serif" font-size="14.00">company_media_proxy_http (http)</text>
</g>
<!-- company_media_proxy_rename&#45;&gt;company_media_proxy_http -->
<g id="edge3" class="edge">
<title>company_media_proxy_rename&#45;&gt;company_media_proxy_http</title>
<path fill="none" stroke="black" d="M863.24,-231.85C863.76,-194.83 864.99,-107.18 865.62,-62.39"/>
<polygon fill="black" stroke="black" points="869.12,-62.28 865.76,-52.23 862.12,-62.18 869.12,-62.28"/>
</g>
<!-- company_unfurler_hostname -->
<g id="node17" class="node">
<title>company_unfurler_hostname</title>
<path fill="lightgrey" stroke="black" d="M270,-412C270,-412 28,-412 28,-412 22,-412 16,-406 16,-400 16,-400 16,-388 16,-388 16,-382 22,-376 28,-376 28,-376 270,-376 270,-376 276,-376 282,-382 282,-388 282,-388 282,-400 282,-400 282,-406 276,-412 270,-412"/>
<text text-anchor="middle" x="149" y="-390.3" font-family="Times,serif" font-size="14.00">company_unfurler_hostname (rename_fields)</text>
</g>
<!-- company_unfurler&#45;&gt;company_unfurler_hostname -->
<g id="edge21" class="edge">
<title>company_unfurler&#45;&gt;company_unfurler_hostname</title>
<path fill="none" stroke="black" d="M170.83,-447.7C167.57,-439.81 163.63,-430.3 160,-421.55"/>
<polygon fill="black" stroke="black" points="163.15,-420 156.09,-412.1 156.68,-422.68 163.15,-420"/>
</g>
<!-- company_unfurler_json -->
<g id="node18" class="node">
<title>company_unfurler_json</title>
<path fill="lightgrey" stroke="black" d="M245.5,-340C245.5,-340 48.5,-340 48.5,-340 42.5,-340 36.5,-334 36.5,-328 36.5,-328 36.5,-316 36.5,-316 36.5,-310 42.5,-304 48.5,-304 48.5,-304 245.5,-304 245.5,-304 251.5,-304 257.5,-310 257.5,-316 257.5,-316 257.5,-328 257.5,-328 257.5,-334 251.5,-340 245.5,-340"/>
<text text-anchor="middle" x="147" y="-318.3" font-family="Times,serif" font-size="14.00">company_unfurler_json (json_parser)</text>
</g>
<!-- company_unfurler_hostname&#45;&gt;company_unfurler_json -->
<g id="edge22" class="edge">
<title>company_unfurler_hostname&#45;&gt;company_unfurler_json</title>
<path fill="none" stroke="black" d="M148.51,-375.7C148.29,-367.98 148.02,-358.71 147.77,-350.11"/>
<polygon fill="black" stroke="black" points="151.27,-350 147.49,-340.1 144.28,-350.2 151.27,-350"/>
</g>
<!-- company_unfurler_timestamp -->
<g id="node19" class="node">
<title>company_unfurler_timestamp</title>
<path fill="lightgrey" stroke="black" d="M251,-268C251,-268 41,-268 41,-268 35,-268 29,-262 29,-256 29,-256 29,-244 29,-244 29,-238 35,-232 41,-232 41,-232 251,-232 251,-232 257,-232 263,-238 263,-244 263,-244 263,-256 263,-256 263,-262 257,-268 251,-268"/>
<text text-anchor="middle" x="146" y="-246.3" font-family="Times,serif" font-size="14.00">company_unfurler_timestamp (coercer)</text>
</g>
<!-- company_unfurler_json&#45;&gt;company_unfurler_timestamp -->
<g id="edge23" class="edge">
<title>company_unfurler_json&#45;&gt;company_unfurler_timestamp</title>
<path fill="none" stroke="black" d="M146.75,-303.7C146.64,-295.98 146.51,-286.71 146.39,-278.11"/>
<polygon fill="black" stroke="black" points="149.89,-278.05 146.24,-268.1 142.89,-278.15 149.89,-278.05"/>
</g>
<!-- company_unfurler_rename -->
<g id="node20" class="node">
<title>company_unfurler_rename</title>
<path fill="lightgrey" stroke="black" d="M258,-196C258,-196 28,-196 28,-196 22,-196 16,-190 16,-184 16,-184 16,-172 16,-172 16,-166 22,-160 28,-160 28,-160 258,-160 258,-160 264,-160 270,-166 270,-172 270,-172 270,-184 270,-184 270,-190 264,-196 258,-196"/>
<text text-anchor="middle" x="143" y="-174.3" font-family="Times,serif" font-size="14.00">company_unfurler_rename (rename_fields)</text>
</g>
<!-- company_unfurler_timestamp&#45;&gt;company_unfurler_rename -->
<g id="edge24" class="edge">
<title>company_unfurler_timestamp&#45;&gt;company_unfurler_rename</title>
<path fill="none" stroke="black" d="M145.26,-231.7C144.93,-223.98 144.53,-214.71 144.16,-206.11"/>
<polygon fill="black" stroke="black" points="147.66,-205.95 143.73,-196.1 140.66,-206.25 147.66,-205.95"/>
</g>
<!-- company_unfurler_filter -->
<g id="node21" class="node">
<title>company_unfurler_filter</title>
<path fill="lightgrey" stroke="black" d="M240,-124C240,-124 46,-124 46,-124 40,-124 34,-118 34,-112 34,-112 34,-100 34,-100 34,-94 40,-88 46,-88 46,-88 240,-88 240,-88 246,-88 252,-94 252,-100 252,-100 252,-112 252,-112 252,-118 246,-124 240,-124"/>
<text text-anchor="middle" x="143" y="-102.3" font-family="Times,serif" font-size="14.00">company_unfurler_filter (field_filter)</text>
</g>
<!-- company_unfurler_rename&#45;&gt;company_unfurler_filter -->
<g id="edge25" class="edge">
<title>company_unfurler_rename&#45;&gt;company_unfurler_filter</title>
<path fill="none" stroke="black" d="M143,-159.7C143,-151.98 143,-142.71 143,-134.11"/>
<polygon fill="black" stroke="black" points="146.5,-134.1 143,-124.1 139.5,-134.1 146.5,-134.1"/>
</g>
<!-- company_unfurler_http -->
<g id="node28" class="node">
<title>company_unfurler_http</title>
<ellipse fill="lightgrey" stroke="black" cx="143" cy="-34" rx="116.18" ry="18"/>
<text text-anchor="middle" x="143" y="-30.3" font-family="Times,serif" font-size="14.00">company_unfurler_http (http)</text>
</g>
<!-- company_unfurler_filter&#45;&gt;company_unfurler_http -->
<g id="edge4" class="edge">
<title>company_unfurler_filter&#45;&gt;company_unfurler_http</title>
<path fill="none" stroke="black" d="M143,-87.7C143,-79.98 143,-70.71 143,-62.11"/>
<polygon fill="black" stroke="black" points="146.5,-62.1 143,-52.1 139.5,-62.1 146.5,-62.1"/>
</g>
<!-- audit_timestamp -->
<g id="node23" class="node">
<title>audit_timestamp</title>
<path fill="lightgrey" stroke="black" d="M1159.5,-412C1159.5,-412 1022.5,-412 1022.5,-412 1016.5,-412 1010.5,-406 1010.5,-400 1010.5,-400 1010.5,-388 1010.5,-388 1010.5,-382 1016.5,-376 1022.5,-376 1022.5,-376 1159.5,-376 1159.5,-376 1165.5,-376 1171.5,-382 1171.5,-388 1171.5,-388 1171.5,-400 1171.5,-400 1171.5,-406 1165.5,-412 1159.5,-412"/>
<text text-anchor="middle" x="1091" y="-390.3" font-family="Times,serif" font-size="14.00">audit_timestamp (coercer)</text>
</g>
<!-- audit&#45;&gt;audit_timestamp -->
<g id="edge27" class="edge">
<title>audit&#45;&gt;audit_timestamp</title>
<path fill="none" stroke="black" d="M1068.42,-447.7C1071.79,-439.81 1075.87,-430.3 1079.62,-421.55"/>
<polygon fill="black" stroke="black" points="1082.95,-422.67 1083.67,-412.1 1076.51,-419.92 1082.95,-422.67"/>
</g>
<!-- audit_rename -->
<g id="node24" class="node">
<title>audit_rename</title>
<path fill="lightgrey" stroke="black" d="M1160,-340C1160,-340 1004,-340 1004,-340 998,-340 992,-334 992,-328 992,-328 992,-316 992,-316 992,-310 998,-304 1004,-304 1004,-304 1160,-304 1160,-304 1166,-304 1172,-310 1172,-316 1172,-316 1172,-328 1172,-328 1172,-334 1166,-340 1160,-340"/>
<text text-anchor="middle" x="1082" y="-318.3" font-family="Times,serif" font-size="14.00">audit_rename (rename_fields)</text>
</g>
<!-- audit_timestamp&#45;&gt;audit_rename -->
<g id="edge28" class="edge">
<title>audit_timestamp&#45;&gt;audit_rename</title>
<path fill="none" stroke="black" d="M1088.78,-375.7C1087.78,-367.98 1086.59,-358.71 1085.49,-350.11"/>
<polygon fill="black" stroke="black" points="1088.95,-349.58 1084.2,-340.1 1082,-350.47 1088.95,-349.58"/>
</g>
<!-- audit_http -->
<g id="node29" class="node">
<title>audit_http</title>
<ellipse fill="lightgrey" stroke="black" cx="1087" cy="-34" rx="68.49" ry="18"/>
<text text-anchor="middle" x="1087" y="-30.3" font-family="Times,serif" font-size="14.00">audit_http (http)</text>
</g>
<!-- audit_rename&#45;&gt;audit_http -->
<g id="edge5" class="edge">
<title>audit_rename&#45;&gt;audit_http</title>
<path fill="none" stroke="black" d="M1082.3,-303.97C1083.13,-256.29 1085.49,-121.18 1086.52,-62.63"/>
<polygon fill="black" stroke="black" points="1090.02,-62.37 1086.7,-52.31 1083.02,-62.24 1090.02,-62.37"/>
</g>
</g>
</svg>
